<svg xmlns="http://www.w3.org/2000/svg" viewBox="0 0 208 208" width="208" height="208">
  <g fill="#FFFFFF" fill-rule="evenodd">
    <path d="M 164 111 L 152 111 L 146 118 L 137 121 L 137 132 L 146 131 L 154 127 L 161 119 Z"/> <path d="M 132 111 L 121 111 L 121 139 L 118 146 L 113 151 L 106 154 L 98 153 L 89 146 L 86 137 L 75 137 L 75 143 L 80 154 L 86 160 L 97 165 L 110 165 L 122 159 L 127 154 L 132 143 Z"/> <path d="M 121 91 L 121 96 L 132 96 L 132 91 Z"/> <path d="M 91 75 L 91 86 L 139 86 L 145 88 L 152 96 L 164 96 L 159 85 L 151 78 L 143 75 Z"/> <path d="M 45 89 L 42 96 L 42 111 L 47 121 L 56 129 L 65 132 L 116 132 L 116 121 L 70 121 L 64 120 L 56 113 L 53 107 L 53 100 L 55 95 L 62 88 L 70 86 L 70 75 L 64 75 L 56 78 Z"/> <path d="M 121 47 L 111 42 L 96 42 L 86 47 L 80 53 L 75 64 L 75 116 L 86 116 L 86 68 L 88 62 L 95 55 L 100 53 L 110 54 L 118 61 L 121 69 L 132 69 L 132 64 L 129 56 Z"/>
  </g>
</svg>